ffmpeg started on 2025-04-30 at 17:49:47
Report written to "D:\Convert\FFMetrics\reports\psnr_report-6.txt"
Log level: 32
Command line:
ffmpeg -hide_banner -nostdin -i "G:\\\xc0\xed\xe8\xec\xe5\\\xce\xed\xe3\xee\xe8\xed\xe3\xe8\\!_37_\xc7\xe8\xec\xe0_2025\\JamClub\\\xcf\xee\xe4\xed\xff\xf2\xe8\xe5 \xf3\xf0\xee\xe2\xed\xff \xe2 \xee\xe4\xe8\xed\xee\xf7\xea\xf3\\\xd2\xc2-2\\JamClub_Ore_dake_Level_Up_na_Ken_Season_2_12_1080p_HEVC.mkv" -i "G:\\\xc0\xed\xe8\xec\xe5\\\xce\xed\xe3\xee\xe8\xed\xe3\xe8\\!_37_\xc7\xe8\xec\xe0_2025\\JamClub\\\xcf\xee\xe4\xed\xff\xf2\xe8\xe5 \xf3\xf0\xee\xe2\xed\xff \xe2 \xee\xe4\xe8\xed\xee\xf7\xea\xf3\\\xd2\xc2-2\\JamClub_Ore_dake_Level_Up_na_Ken_Season_2_12_1080p.mp4" -lavfi "[0:v]settb=AVTB,setpts=PTS-STARTPTS,format=pix_fmts=yuv420p10,fps=24000/1001,scale=1920:1080:flags=bicubic[main];[1:v]settb=AVTB,setpts=PTS-STARTPTS,format=pix_fmts=yuv420p,fps=24000/1001,scale=1920:1080:flags=bicubic[ref];[main][ref]psnr=eof_action=endall:stats_file='D\\:/Convert/FFMetrics/logs/psnr_logfile-6.txt'" -f null -
Input #0, matroska,webm, from 'G:\Аниме\Онгоинги\!_37_Зима_2025\JamClub\Поднятие уровня в одиночку\ТВ-2\JamClub_Ore_dake_Level_Up_na_Ken_Season_2_12_1080p_HEVC.mkv':
  Metadata:
    COMPATIBLE_BRANDS: isomiso2avc1mp41
    MAJOR_BRAND     : isom
    MINOR_VERSION   : 512
    ENCODER         : Lavf61.7.100
  Duration: 00:24:02.28, start: -0.001000, bitrate: 1831 kb/s
  Stream #0:0: Video: hevc (Main 10), yuv420p10le(tv, bt709, progressive), 1920x1080 [SAR 1:1 DAR 16:9], 23.98 fps, 23.98 tbr, 1k tbn (default)
      Metadata:
        HANDLER_NAME    : VideoHandler
        VENDOR_ID       : [0][0][0][0]
        ENCODER         : Lavc61.19.100 libx265
        BPS             : 1633503
        DURATION        : 00:24:02.107708333
        NUMBER_OF_FRAMES: 34576
        NUMBER_OF_BYTES : 294460865
        _STATISTICS_WRITING_APP: mkvpropedit v66.0.0 ('Josie') 64-bit
        _STATISTICS_WRITING_DATE_UTC: 2025-04-30 10:18:56
        _STATISTICS_TAGS: BPS DURATION NUMBER_OF_FRAMES NUMBER_OF_BYTES
  Stream #0:1(eng): Audio: aac (LC), 48000 Hz, stereo, fltp (default)
      Metadata:
        HANDLER_NAME    : SoundHandler
        VENDOR_ID       : [0][0][0][0]
        ENCODER         : Lavc61.19.100 aac
        BPS             : 193954
        DURATION        : 00:24:02.243000000
        NUMBER_OF_FRAMES: 67606
        NUMBER_OF_BYTES : 34966157
        _STATISTICS_WRITING_APP: mkvpropedit v66.0.0 ('Josie') 64-bit
        _STATISTICS_WRITING_DATE_UTC: 2025-04-30 10:18:56
        _STATISTICS_TAGS: BPS DURATION NUMBER_OF_FRAMES NUMBER_OF_BYTES
Input #1, mov,mp4,m4a,3gp,3g2,mj2, from 'G:\Аниме\Онгоинги\!_37_Зима_2025\JamClub\Поднятие уровня в одиночку\ТВ-2\JamClub_Ore_dake_Level_Up_na_Ken_Season_2_12_1080p.mp4':
  Metadata:
    major_brand     : isom
    minor_version   : 512
    compatible_brands: isomiso2avc1mp41
    encoder         : Lavf60.16.100
  Duration: 00:24:02.26, start: 0.000000, bitrate: 5257 kb/s
  Stream #1:0[0x1](und): Video: h264 (High) (avc1 / 0x31637661), yuv420p(progressive), 1920x1080 [SAR 1:1 DAR 16:9], 5060 kb/s, 23.98 fps, 23.98 tbr, 90k tbn (default)
      Metadata:
        handler_name    : VideoHandler
        vendor_id       : [0][0][0][0]
  Stream #1:1[0x2](eng): Audio: aac (LC) (mp4a / 0x6134706D), 48000 Hz, stereo, fltp, 191 kb/s (default)
      Metadata:
        handler_name    : SoundHandler
        vendor_id       : [0][0][0][0]
Stream mapping:
  Stream #0:0 (hevc) -> settb:default
  Stream #1:0 (h264) -> settb:default
  psnr:default -> Stream #0:0 (wrapped_avframe)
  Stream #0:1 -> #0:1 (aac (native) -> pcm_s16le (native))
Output #0, null, to 'pipe:':
  Metadata:
    COMPATIBLE_BRANDS: isomiso2avc1mp41
    MAJOR_BRAND     : isom
    MINOR_VERSION   : 512
    encoder         : Lavf61.7.100
  Stream #0:0: Video: wrapped_avframe, yuv420p10le(tv, bt709, progressive), 1920x1080 [SAR 1:1 DAR 16:9], q=2-31, 200 kb/s, 23.98 fps, 23.98 tbn
      Metadata:
        encoder         : Lavc61.19.100 wrapped_avframe
  Stream #0:1(eng): Audio: pcm_s16le, 48000 Hz, stereo, s16, 1536 kb/s (default)
      Metadata:
        HANDLER_NAME    : SoundHandler
        VENDOR_ID       : [0][0][0][0]
        _STATISTICS_TAGS: BPS DURATION NUMBER_OF_FRAMES NUMBER_OF_BYTES
        BPS             : 193954
        DURATION        : 00:24:02.243000000
        NUMBER_OF_FRAMES: 67606
        NUMBER_OF_BYTES : 34966157
        _STATISTICS_WRITING_APP: mkvpropedit v66.0.0 ('Josie') 64-bit
        _STATISTICS_WRITING_DATE_UTC: 2025-04-30 10:18:56
        encoder         : Lavc61.19.100 pcm_s16le
frame=  112 fps=0.0 q=-0.0 size=N/A time=00:00:04.67 bitrate=N/A speed=9.17x    frame=  273 fps=264 q=-0.0 size=N/A time=00:00:11.38 bitrate=N/A speed=  11x    frame=  470 fps=304 q=-0.0 size=N/A time=00:00:19.60 bitrate=N/A speed=12.7x    frame=  697 fps=340 q=-0.0 size=N/A time=00:00:29.07 bitrate=N/A speed=14.2x    frame=  884 fps=343 q=-0.0 size=N/A time=00:00:36.87 bitrate=N/A speed=14.3x    frame= 1070 fps=346 q=-0.0 size=N/A time=00:00:44.62 bitrate=N/A speed=14.4x    frame= 1241 fps=345 q=-0.0 size=N/A time=00:00:51.76 bitrate=N/A speed=14.4x    frame= 1435 fps=348 q=-0.0 size=N/A time=00:00:59.85 bitrate=N/A speed=14.5x    frame= 1660 fps=358 q=-0.0 size=N/A time=00:01:09.23 bitrate=N/A speed=14.9x    frame= 1848 fps=358 q=-0.0 size=N/A time=00:01:17.07 bitrate=N/A speed=14.9x    frame= 2061 fps=364 q=-0.0 size=N/A time=00:01:25.96 bitrate=N/A speed=15.2x    frame= 2319 fps=375 q=-0.0 size=N/A time=00:01:36.72 bitrate=N/A speed=15.7x    frame= 2579 fps=385 q=-0.0 size=N/A time=00:01:47.56 bitrate=N/A speed=  16x    frame= 2833 fps=393 q=-0.0 size=N/A time=00:01:58.15 bitrate=N/A speed=16.4x    frame= 3063 fps=397 q=-0.0 size=N/A time=00:02:07.75 bitrate=N/A speed=16.5x    frame= 3315 fps=402 q=-0.0 size=N/A time=00:02:18.26 bitrate=N/A speed=16.8x    frame= 3506 fps=400 q=-0.0 size=N/A time=00:02:26.22 bitrate=N/A speed=16.7x    frame= 3685 fps=397 q=-0.0 size=N/A time=00:02:33.69 bitrate=N/A speed=16.6x    frame= 3866 fps=395 q=-0.0 size=N/A time=00:02:41.24 bitrate=N/A speed=16.5x    frame= 4063 fps=394 q=-0.0 size=N/A time=00:02:49.46 bitrate=N/A speed=16.4x    frame= 4294 fps=396 q=-0.0 size=N/A time=00:02:59.09 bitrate=N/A speed=16.5x    frame= 4514 fps=398 q=-0.0 size=N/A time=00:03:08.27 bitrate=N/A speed=16.6x    frame= 4777 fps=403 q=-0.0 size=N/A time=00:03:19.24 bitrate=N/A speed=16.8x    frame= 5011 fps=405 q=-0.0 size=N/A time=00:03:29.00 bitrate=N/A speed=16.9x    frame= 5250 fps=407 q=-0.0 size=N/A time=00:03:38.96 bitrate=N/A speed=  17x    frame= 5493 fps=410 q=-0.0 size=N/A time=00:03:49.10 bitrate=N/A speed=17.1x    frame= 5739 fps=412 q=-0.0 size=N/A time=00:03:59.36 bitrate=N/A speed=17.2x    frame= 5960 fps=413 q=-0.0 size=N/A time=00:04:08.58 bitrate=N/A speed=17.2x    frame= 6217 fps=416 q=-0.0 size=N/A time=00:04:19.30 bitrate=N/A speed=17.3x    frame= 6484 fps=419 q=-0.0 size=N/A time=00:04:30.43 bitrate=N/A speed=17.5x    frame= 6766 fps=423 q=-0.0 size=N/A time=00:04:42.19 bitrate=N/A speed=17.7x    frame= 7038 fps=427 q=-0.0 size=N/A time=00:04:53.54 bitrate=N/A speed=17.8x    frame= 7288 fps=429 q=-0.0 size=N/A time=00:05:03.97 bitrate=N/A speed=17.9x    frame= 7543 fps=430 q=-0.0 size=N/A time=00:05:14.60 bitrate=N/A speed=17.9x    frame= 7764 fps=430 q=-0.0 size=N/A time=00:05:23.82 bitrate=N/A speed=17.9x    frame= 7971 fps=430 q=-0.0 size=N/A time=00:05:32.45 bitrate=N/A speed=17.9x    frame= 8246 fps=432 q=-0.0 size=N/A time=00:05:43.92 bitrate=N/A speed=  18x    frame= 8512 fps=435 q=-0.0 size=N/A time=00:05:55.02 bitrate=N/A speed=18.1x    frame= 8723 fps=434 q=-0.0 size=N/A time=00:06:03.82 bitrate=N/A speed=18.1x    frame= 8924 fps=433 q=-0.0 size=N/A time=00:06:12.20 bitrate=N/A speed=  18x    frame= 9153 fps=433 q=-0.0 size=N/A time=00:06:21.75 bitrate=N/A speed=18.1x    frame= 9394 fps=434 q=-0.0 size=N/A time=00:06:31.80 bitrate=N/A speed=18.1x    frame= 9625 fps=434 q=-0.0 size=N/A time=00:06:41.44 bitrate=N/A speed=18.1x    frame= 9853 fps=434 q=-0.0 size=N/A time=00:06:50.95 bitrate=N/A speed=18.1x    frame=10083 fps=435 q=-0.0 size=N/A time=00:07:00.54 bitrate=N/A speed=18.1x    frame=10265 fps=433 q=-0.0 size=N/A time=00:07:08.13 bitrate=N/A speed=18.1x    frame=10469 fps=432 q=-0.0 size=N/A time=00:07:16.64 bitrate=N/A speed=  18x    frame=10690 fps=432 q=-0.0 size=N/A time=00:07:25.86 bitrate=N/A speed=  18x    frame=10908 fps=432 q=-0.0 size=N/A time=00:07:34.95 bitrate=N/A speed=  18x    frame=11111 fps=431 q=-0.0 size=N/A time=00:07:43.42 bitrate=N/A speed=  18x    frame=11340 fps=431 q=-0.0 size=N/A time=00:07:52.97 bitrate=N/A speed=  18x    frame=11580 fps=432 q=-0.0 size=N/A time=00:08:02.98 bitrate=N/A speed=  18x    frame=11781 fps=431 q=-0.0 size=N/A time=00:08:11.36 bitrate=N/A speed=  18x    frame=11998 fps=431 q=-0.0 size=N/A time=00:08:20.41 bitrate=N/A speed=  18x    frame=12251 fps=432 q=-0.0 size=N/A time=00:08:30.96 bitrate=N/A speed=  18x    frame=12474 fps=432 q=-0.0 size=N/A time=00:08:40.26 bitrate=N/A speed=  18x    frame=12741 fps=433 q=-0.0 size=N/A time=00:08:51.40 bitrate=N/A speed=18.1x    frame=12993 fps=434 q=-0.0 size=N/A time=00:09:01.91 bitrate=N/A speed=18.1x    frame=13255 fps=435 q=-0.0 size=N/A time=00:09:12.84 bitrate=N/A speed=18.2x    frame=13498 fps=436 q=-0.0 size=N/A time=00:09:22.97 bitrate=N/A speed=18.2x    frame=13732 fps=436 q=-0.0 size=N/A time=00:09:32.73 bitrate=N/A speed=18.2x    frame=13974 fps=437 q=-0.0 size=N/A time=00:09:42.83 bitrate=N/A speed=18.2x    frame=14216 fps=437 q=-0.0 size=N/A time=00:09:52.92 bitrate=N/A speed=18.2x    frame=14443 fps=437 q=-0.0 size=N/A time=00:10:02.39 bitrate=N/A speed=18.2x    frame=14676 fps=438 q=-0.0 size=N/A time=00:10:12.11 bitrate=N/A speed=18.3x    frame=14926 fps=438 q=-0.0 size=N/A time=00:10:22.53 bitrate=N/A speed=18.3x    frame=15159 fps=439 q=-0.0 size=N/A time=00:10:32.25 bitrate=N/A speed=18.3x    frame=15380 fps=438 q=-0.0 size=N/A time=00:10:41.47 bitrate=N/A speed=18.3x    frame=15604 fps=438 q=-0.0 size=N/A time=00:10:50.81 bitrate=N/A speed=18.3x    frame=15874 fps=440 q=-0.0 size=N/A time=00:11:02.11 bitrate=N/A speed=18.3x    frame=16089 fps=439 q=-0.0 size=N/A time=00:11:11.04 bitrate=N/A speed=18.3x    frame=16293 fps=439 q=-0.0 size=N/A time=00:11:19.55 bitrate=N/A speed=18.3x    frame=16492 fps=438 q=-0.0 size=N/A time=00:11:27.85 bitrate=N/A speed=18.3x    frame=16700 fps=437 q=-0.0 size=N/A time=00:11:36.52 bitrate=N/A speed=18.2x    frame=16906 fps=437 q=-0.0 size=N/A time=00:11:45.12 bitrate=N/A speed=18.2x    frame=17141 fps=437 q=-0.0 size=N/A time=00:11:54.92 bitrate=N/A speed=18.2x    frame=17355 fps=437 q=-0.0 size=N/A time=00:12:03.84 bitrate=N/A speed=18.2x    frame=17558 fps=436 q=-0.0 size=N/A time=00:12:12.31 bitrate=N/A speed=18.2x    frame=17816 fps=437 q=-0.0 size=N/A time=00:12:23.07 bitrate=N/A speed=18.2x    frame=18071 fps=438 q=-0.0 size=N/A time=00:12:33.71 bitrate=N/A speed=18.3x    frame=18291 fps=438 q=-0.0 size=N/A time=00:12:42.88 bitrate=N/A speed=18.3x    frame=18565 fps=439 q=-0.0 size=N/A time=00:12:54.31 bitrate=N/A speed=18.3x    frame=18825 fps=440 q=-0.0 size=N/A time=00:13:05.15 bitrate=N/A speed=18.3x    frame=19027 fps=439 q=-0.0 size=N/A time=00:13:13.58 bitrate=N/A speed=18.3x    frame=19302 fps=440 q=-0.0 size=N/A time=00:13:25.05 bitrate=N/A speed=18.4x    frame=19533 fps=440 q=-0.0 size=N/A time=00:13:34.68 bitrate=N/A speed=18.4x    frame=19788 fps=441 q=-0.0 size=N/A time=00:13:45.32 bitrate=N/A speed=18.4x    frame=20027 fps=441 q=-0.0 size=N/A time=00:13:55.29 bitrate=N/A speed=18.4x    frame=20285 fps=442 q=-0.0 size=N/A time=00:14:06.05 bitrate=N/A speed=18.4x    frame=20534 fps=442 q=-0.0 size=N/A time=00:14:16.43 bitrate=N/A speed=18.4x    frame=20811 fps=443 q=-0.0 size=N/A time=00:14:27.99 bitrate=N/A speed=18.5x    frame=21077 fps=444 q=-0.0 size=N/A time=00:14:39.08 bitrate=N/A speed=18.5x    frame=21310 fps=444 q=-0.0 size=N/A time=00:14:48.80 bitrate=N/A speed=18.5x    frame=21562 fps=445 q=-0.0 size=N/A time=00:14:59.31 bitrate=N/A speed=18.5x    frame=21795 fps=445 q=-0.0 size=N/A time=00:15:09.03 bitrate=N/A speed=18.5x    frame=22051 fps=445 q=-0.0 size=N/A time=00:15:19.71 bitrate=N/A speed=18.6x    frame=22290 fps=445 q=-0.0 size=N/A time=00:15:29.67 bitrate=N/A speed=18.6x    frame=22514 fps=445 q=-0.0 size=N/A time=00:15:39.02 bitrate=N/A speed=18.6x    frame=22719 fps=445 q=-0.0 size=N/A time=00:15:47.57 bitrate=N/A speed=18.6x    frame=22945 fps=445 q=-0.0 size=N/A time=00:15:56.99 bitrate=N/A speed=18.5x    frame=23167 fps=445 q=-0.0 size=N/A time=00:16:06.25 bitrate=N/A speed=18.5x    frame=23375 fps=444 q=-0.0 size=N/A time=00:16:14.93 bitrate=N/A speed=18.5x    frame=23572 fps=444 q=-0.0 size=N/A time=00:16:23.14 bitrate=N/A speed=18.5x    frame=23777 fps=443 q=-0.0 size=N/A time=00:16:31.69 bitrate=N/A speed=18.5x    frame=23971 fps=443 q=-0.0 size=N/A time=00:16:39.79 bitrate=N/A speed=18.5x    frame=24172 fps=442 q=-0.0 size=N/A time=00:16:48.17 bitrate=N/A speed=18.4x    frame=24404 fps=442 q=-0.0 size=N/A time=00:16:57.85 bitrate=N/A speed=18.4x    frame=24610 fps=442 q=-0.0 size=N/A time=00:17:06.44 bitrate=N/A speed=18.4x    frame=24816 fps=441 q=-0.0 size=N/A time=00:17:15.03 bitrate=N/A speed=18.4x    frame=25013 fps=441 q=-0.0 size=N/A time=00:17:23.25 bitrate=N/A speed=18.4x    frame=25230 fps=441 q=-0.0 size=N/A time=00:17:32.30 bitrate=N/A speed=18.4x    frame=25423 fps=440 q=-0.0 size=N/A time=00:17:40.35 bitrate=N/A speed=18.4x    frame=25627 fps=440 q=-0.0 size=N/A time=00:17:48.85 bitrate=N/A speed=18.3x    frame=25811 fps=439 q=-0.0 size=N/A time=00:17:56.53 bitrate=N/A speed=18.3x    frame=26031 fps=439 q=-0.0 size=N/A time=00:18:05.70 bitrate=N/A speed=18.3x    frame=26207 fps=438 q=-0.0 size=N/A time=00:18:13.05 bitrate=N/A speed=18.3x    frame=26420 fps=438 q=-0.0 size=N/A time=00:18:21.93 bitrate=N/A speed=18.3x    frame=26627 fps=437 q=-0.0 size=N/A time=00:18:30.56 bitrate=N/A speed=18.2x    frame=26821 fps=437 q=-0.0 size=N/A time=00:18:38.65 bitrate=N/A speed=18.2x    frame=27035 fps=437 q=-0.0 size=N/A time=00:18:47.58 bitrate=N/A speed=18.2x    frame=27241 fps=436 q=-0.0 size=N/A time=00:18:56.17 bitrate=N/A speed=18.2x    frame=27471 fps=436 q=-0.0 size=N/A time=00:19:05.76 bitrate=N/A speed=18.2x    frame=27674 fps=436 q=-0.0 size=N/A time=00:19:14.23 bitrate=N/A speed=18.2x    frame=27853 fps=435 q=-0.0 size=N/A time=00:19:21.70 bitrate=N/A speed=18.2x    frame=28043 fps=435 q=-0.0 size=N/A time=00:19:29.62 bitrate=N/A speed=18.1x    frame=28244 fps=434 q=-0.0 size=N/A time=00:19:38.01 bitrate=N/A speed=18.1x    frame=28432 fps=434 q=-0.0 size=N/A time=00:19:45.85 bitrate=N/A speed=18.1x    frame=28635 fps=434 q=-0.0 size=N/A time=00:19:54.31 bitrate=N/A speed=18.1x    frame=28853 fps=433 q=-0.0 size=N/A time=00:20:03.41 bitrate=N/A speed=18.1x    frame=29052 fps=433 q=-0.0 size=N/A time=00:20:11.71 bitrate=N/A speed=18.1x    frame=29267 fps=433 q=-0.0 size=N/A time=00:20:20.67 bitrate=N/A speed=18.1x    frame=29468 fps=433 q=-0.0 size=N/A time=00:20:29.06 bitrate=N/A speed=  18x    frame=29627 fps=432 q=-0.0 size=N/A time=00:20:35.69 bitrate=N/A speed=  18x    frame=29820 fps=431 q=-0.0 size=N/A time=00:20:43.74 bitrate=N/A speed=  18x    frame=30016 fps=431 q=-0.0 size=N/A time=00:20:51.91 bitrate=N/A speed=  18x    frame=30252 fps=431 q=-0.0 size=N/A time=00:21:01.80 bitrate=N/A speed=  18x    frame=30500 fps=431 q=-0.0 size=N/A time=00:21:12.10 bitrate=N/A speed=  18x    frame=30735 fps=432 q=-0.0 size=N/A time=00:21:21.90 bitrate=N/A speed=  18x    frame=30992 fps=432 q=-0.0 size=N/A time=00:21:32.62 bitrate=N/A speed=  18x    frame=31239 fps=433 q=-0.0 size=N/A time=00:21:42.92 bitrate=N/A speed=  18x    frame=31492 fps=433 q=-0.0 size=N/A time=00:21:53.47 bitrate=N/A speed=18.1x    frame=31680 fps=432 q=-0.0 size=N/A time=00:22:01.32 bitrate=N/A speed=  18x    frame=31962 fps=433 q=-0.0 size=N/A time=00:22:13.08 bitrate=N/A speed=18.1x    frame=32202 fps=433 q=-0.0 size=N/A time=00:22:23.09 bitrate=N/A speed=18.1x    frame=32432 fps=434 q=-0.0 size=N/A time=00:22:32.68 bitrate=N/A speed=18.1x    frame=32638 fps=433 q=-0.0 size=N/A time=00:22:41.27 bitrate=N/A speed=18.1x    frame=32858 fps=433 q=-0.0 size=N/A time=00:22:50.45 bitrate=N/A speed=18.1x    frame=33064 fps=433 q=-0.0 size=N/A time=00:22:59.04 bitrate=N/A speed=18.1x    frame=33281 fps=433 q=-0.0 size=N/A time=00:23:08.09 bitrate=N/A speed=18.1x    frame=33485 fps=433 q=-0.0 size=N/A time=00:23:16.60 bitrate=N/A speed=  18x    frame=33639 fps=432 q=-0.0 size=N/A time=00:23:23.02 bitrate=N/A speed=  18x    frame=33829 fps=431 q=-0.0 size=N/A time=00:23:30.95 bitrate=N/A speed=  18x    frame=34022 fps=431 q=-0.0 size=N/A time=00:23:39.00 bitrate=N/A speed=  18x    frame=34229 fps=431 q=-0.0 size=N/A time=00:23:47.63 bitrate=N/A speed=  18x    frame=34452 fps=431 q=-0.0 size=N/A time=00:23:56.93 bitrate=N/A speed=  18x    [Parsed_psnr_10 @ 00000242c51db1c0] PSNR y:48.166308 u:49.874221 v:49.721119 average:48.644909 min:37.687346 max:inf
[out#0/null @ 00000242b912ec00] video:14857KiB audio:270424KiB subtitle:0KiB other streams:0KiB global headers:0KiB muxing overhead: unknown
frame=34576 fps=430 q=-0.0 Lsize=N/A time=00:24:02.10 bitrate=N/A speed=17.9x    
